<?xml version="1.0" encoding="UTF-8"?>
<svg width="49px" height="55px" viewBox="0 0 49 55" version="1.1" xmlns="http://www.w3.org/2000/svg" xmlns:xlink="http://www.w3.org/1999/xlink">
    <!-- Generator: Sketch 61.2 (89653) - https://sketch.com -->
    <title>icon/attachments</title>
    <desc>Created with Sketch.</desc>
    <g id="Page-1" stroke="none" stroke-width="1" fill="none" fill-rule="evenodd">
        <g id="Grid-(desktop)" transform="translate(-611.000000, -471.000000)">
            <g id="icon/attachments" transform="translate(604.000000, 467.000000)">
                <g>
                    <g id="Kader">
                        <rect id="Rectangle" x="0" y="0" width="64" height="64"></rect>
                    </g>
                    <path d="M50.4,10.6 C42.6,2.8 32.1,3.2 24.1,11.2 L7.6,27.7 L11.2,31.3 C28.2,14.4 30.8,10.3 37.4,10.1 C46.3,9.8 57.3,22.3 46.2,33.3 C28,51.4 26.6,53.8 21.8,54 C19.6,54.1 17.5,53.2 15.8,51.5 C12.1,47.8 12.5,42.6 16.8,38.3 C16.8,38.3 24.6,30.6 28.9,26.2 C32.7,22.4 38.6,28.2 34.8,32 L23.4,43.4 L27,47 C38.9,35 41.2,33.7 41,28.9 C40.7,21.3 31.2,16.8 25.3,22.7 C21,26.9 13.3,34.7 13.3,34.7 C2.4,45.5 10.9,59 21.6,59 C21.7,59 21.8,59 22,59 C25.8,58.9 29.5,57.1 32.7,54 L49.9,36.8 C57.6,29.1 58.2,18.4 50.4,10.6 Z" id="Path" fill="#343434" fill-rule="nonzero"></path>
                </g>
            </g>
        </g>
    </g>
</svg>