<?xml version="1.0" encoding="UTF-8"?>
<svg width="56px" height="56px" viewBox="0 0 56 56" version="1.1" xmlns="http://www.w3.org/2000/svg" xmlns:xlink="http://www.w3.org/1999/xlink">
    <defs>
        <path d="M44.5,49.5 L49.5,49.5 L49.5,44.5 L44.5,44.5 L44.5,49.5 Z M50.5,25.5 L13.5,25.5 L13.5,30.5 L50.5,30.5 L50.5,25.5 Z M49.5,34.5 L44.5,34.5 L44.5,39.5 L49.5,39.5 L49.5,34.5 Z M22.5,17.5 L37.5,17.5 L37.5,12.5 L22.5,12.5 L22.5,4.5 L17.5,4.5 L17.5,21.5 L22.5,21.5 L22.5,17.5 Z M39.5,34.5 L34.5,34.5 L34.5,39.5 L39.5,39.5 L39.5,34.5 Z M46.5,12.5 L46.5,4.5 L41.5,4.5 L41.5,21.5 L46.5,21.5 L46.5,17.5 L54.5,17.5 L54.5,54.5 L9.5,54.5 L9.5,17.5 L13.5,17.5 L13.5,12.5 L4.5,12.5 L4.5,59.5 L59.5,59.5 L59.5,12.5 L46.5,12.5 Z M34.5,49.5 L39.5,49.5 L39.5,44.5 L34.5,44.5 L34.5,49.5 Z M14.5,49.5 L19.5,49.5 L19.5,44.5 L14.5,44.5 L14.5,49.5 Z M19.5,34.5 L14.5,34.5 L14.5,39.5 L19.5,39.5 L19.5,34.5 Z M29.5,34.5 L24.5,34.5 L24.5,39.5 L29.5,39.5 L29.5,34.5 Z M24.5,49.5 L29.5,49.5 L29.5,44.5 L24.5,44.5 L24.5,49.5 Z" id="path-1"></path>
    </defs>
    <g id="Page-1" stroke="none" stroke-width="1" fill="none" fill-rule="evenodd">
        <g id="Grid-(desktop)" transform="translate(-608.000000, -165.000000)">
            <g id="icon/calendar" transform="translate(604.000000, 161.000000)">
                <g>
                    <g id="Kader">
                        <rect id="Rectangle" x="0" y="0" width="64" height="64"></rect>
                    </g>
                    <mask id="mask-2" fill="#fff">
                        <use xlink:href="#path-1"></use>
                    </mask>
                    <use id="shape" fill="#343434" xlink:href="#path-1"></use>
                </g>
            </g>
        </g>
    </g>
</svg>