<?xml version="1.0" encoding="UTF-8"?>
<svg width="52px" height="48px" viewBox="0 0 52 48" version="1.1" xmlns="http://www.w3.org/2000/svg" xmlns:xlink="http://www.w3.org/1999/xlink">
    <defs>
        <path d="M46.485,8 L17.4841,8 C11.1427,8 6,13.1513688 6,19.493169 L6,32.4944046 C6,38.8365049 11.1427,44.0039754 17.4841,44.0039754 L20,44.0039754 L20,53.4966236 C20,54.8762759 21.1115,56 22.4917,56 C23.845,56 23.1204,56.0053006 36.2806,44.0039754 L46.485,44.0039754 C52.8265,44.0039754 58,38.8365049 58,32.4945046 L58,19.493169 C58,13.1513688 52.8265,8 46.485,8 Z M53,32.4945046 C53,36.0788004 50.0691,39.0034233 46.485,39.0034233 L34.2649,39.0034233 L25,47.9327092 L25,39.0034233 L17.4841,39.0034233 C13.9001,39.0034233 11,36.0788004 11,32.4945046 L11,19.493169 C11,15.9089733 13.9001,13.0005521 17.4841,13.0005521 L46.485,13.0005521 C50.0691,13.0005521 53,15.9089733 53,19.493169 L53,32.4945046 Z" id="path-1"></path>
    </defs>
    <g id="Page-1" stroke="none" stroke-width="1" fill="none" fill-rule="evenodd">
        <g id="Grid-(desktop)" transform="translate(-610.000000, -271.000000)">
            <g id="icon/chatspeech" transform="translate(604.000000, 263.000000)">
                <g>
                    <g id="Kader">
                        <rect id="Rectangle" x="0" y="0" width="64" height="64"></rect>
                    </g>
                    <mask id="mask-2" fill="#fff">
                        <use xlink:href="#path-1"></use>
                    </mask>
                    <use id="shape" fill="#343434" xlink:href="#path-1"></use>
                </g>
            </g>
        </g>
    </g>
</svg>