<?xml version="1.0" encoding="UTF-8"?>
<svg width="56px" height="56px" viewBox="0 0 56 56" version="1.1" xmlns="http://www.w3.org/2000/svg" xmlns:xlink="http://www.w3.org/1999/xlink">
    <defs>
        <path d="M17.9583125,4.39125 C14.4991125,4.39125 13.5718125,6.08055 6.2901125,13.36075 C3.7552125,15.89665 3.7556125,20.01885 6.2901125,22.55365 L12.3011125,28.56325 L28.5651125,12.29975 C22.2542125,5.98975 21.3425125,4.39125 17.9583125,4.39125 Z M12.3011125,21.49255 C7.9263125,17.11885 7.7376125,18.98385 16.8968125,9.82615 C17.4757125,9.24645 18.4378125,9.24415 19.0190125,9.82615 L21.4937125,12.30025 L12.3011125,21.49255 Z M51.3529125,35.08705 L31.3934125,15.12875 L27.8582125,18.66435 L46.9876125,37.79405 L50.4534125,48.08295 L48.0852125,50.45115 L37.7950125,46.98595 L18.6656125,27.85725 L15.1302125,31.39225 L35.0877125,51.35005 L59.6109125,59.60875 L51.3529125,35.08705 L51.3529125,35.08705 Z M43.2305125,39.69255 L25.0289125,21.49305 L21.4937125,25.02825 L39.6954125,43.22775 C42.0307125,45.56285 45.5712125,42.03075 43.2305125,39.69255 Z" id="path-1"></path>
    </defs>
    <g id="Page-1" stroke="none" stroke-width="1" fill="none" fill-rule="evenodd">
        <g id="Grid-(desktop)" transform="translate(-48.000000, -675.000000)">
            <g id="icon/pencil" transform="translate(44.000000, 671.000000)">
                <g>
                    <g id="Kader">
                        <rect id="Rectangle" x="0" y="0" width="64" height="64"></rect>
                    </g>
                    <mask id="mask-2" fill="#fff">
                        <use xlink:href="#path-1"></use>
                    </mask>
                    <use id="Shape" fill="#343434" xlink:href="#path-1"></use>
                </g>
            </g>
        </g>
    </g>
</svg>