<svg class="u-margin-right c-footer__socials-icon" focusable="false" width="32px" height="32px" style="transform:" data-ui-test-class="Facebook" xmlns="http://www.w3.org/2000/svg" viewBox="0 0 64 64"><rect width="64" height="64" style="fill:none"></rect><path d="M32,0A32,32,0,1,1,0,32,32,32,0,0,1,32,0ZM46.22,16H17.78A1.78,1.78,0,0,0,16,17.78V46.22A1.78,1.78,0,0,0,17.78,48H33.09V35.63H28.94V30.78h4.15V27.23c0-4.14,2.53-6.39,6.23-6.39A33.12,33.12,0,0,1,43,21v4.29H40.48c-2,0-2.39,1-2.39,2.35v3.09h4.8l-.62,4.84H38.09V48h8.13A1.78,1.78,0,0,0,48,46.22V17.78A1.78,1.78,0,0,0,46.22,16Z"></path></svg>