<svg class="u-fill-primary-petrol u-display-none u-display-inline-block@tablet u-vertical-align-middle" focusable="false" width="138px" height="16px" viewBox="0 0 138 16" xmlns="http://www.w3.org/2000/svg" version="1.1"><rect width="138" height="16" style="fill:none"></rect><path d="M51.51,15.99 L58.8,15.99 L52.8,6.99 L58.3,-0.01 L51.3,-0.01 L46.43,6.74 L46.43,4.10782519e-15 L40,4.10782519e-15 L40,16 L46.39,16 L46.39,10.33 C46.3766473,10.0849835 46.4140979,9.83985253 46.5,9.61 C46.6614798,9.33074325 47.0148632,9.22914552 47.3,9.38 C47.4444929,9.49425182 47.5636773,9.63727304 47.65,9.8 L51.51,15.99 Z M19.29,3.55271368e-15 L26.03,3.55271368e-15 L28.82,8.91 L28.86,8.91 L31.65,3.55271368e-15 L38.12,3.55271368e-15 L32.19,15.99 L24.96,15.99 L19.29,3.55271368e-15 Z M11.48,15.99 L18.77,15.99 L12.77,6.99 L18.28,-0.01 L11.28,-0.01 L6.4,6.74 L6.4,4.10782519e-15 L0,4.10782519e-15 L0,16 L6.39,16 L6.39,10.33 C6.37664729,10.0849835 6.41409786,9.83985253 6.5,9.61 C6.6576152,9.33207075 7.00782971,9.23010957 7.29,9.38 C7.44057521,9.49058925 7.56374095,9.63428262 7.65,9.8 L11.48,15.99 Z M62.59,3.5249581e-15 L64.12,3.5249581e-15 L65.47,4.41 L66.93,-0.02 L68.16,-0.02 L69.62,4.41 L71,3.5249581e-15 L72.5,3.5249581e-15 L70.24,6.55 L69,6.55 L67.53,2.3 L66.06,6.55 L64.81,6.55 L62.59,3.5249581e-15 Z M73.53,3.55271368e-15 L78.43,3.55271368e-15 L78.43,1.27 L75,1.27 L75,2.59 L78,2.59 L78,3.89 L75,3.89 L75,5.23 L78.53,5.23 L78.53,6.51 L73.53,6.51 L73.53,3.55271368e-15 Z M79.76,3.16413562e-15 L82.76,3.16413562e-15 C83.4563847,-0.0449457104 84.1414416,0.193021449 84.66,0.66 C85.044783,1.05779208 85.2475302,1.59724454 85.22,2.15 C85.2615319,3.05720019 84.6866185,3.87850506 83.82,4.15 L85.41,6.48 L83.71,6.48 L82.31,4.4 L81.19,4.4 L81.19,6.51 L79.76,6.51 L79.76,3.16413562e-15 Z M82.64,3.16 C83.34,3.16 83.74,2.79 83.74,2.24 C83.74,1.63 83.31,1.31 82.61,1.31 L81.19,1.31 L81.19,3.16 L82.64,3.16 Z M86.48,3.55271368e-15 L87.91,3.55271368e-15 L87.91,2.89 L90.55,3.55271368e-15 L92.28,3.55271368e-15 L89.63,2.76 L92.4,6.51 L90.68,6.51 L88.68,3.74 L87.92,4.52 L87.92,6.52 L86.48,6.52 L86.48,3.55271368e-15 Z M94.69,1.32 L92.69,1.32 L92.69,3.55271368e-15 L98.1,3.55271368e-15 L98.1,1.32 L96.1,1.32 L96.1,6.51 L94.69,6.51 L94.69,1.32 Z M101.44,3.55271368e-15 L103,3.55271368e-15 L104.7,4.58 L106.4,3.77475828e-15 L108,3.55271368e-15 L105.37,6.55 L104.11,6.55 L101.44,3.55271368e-15 Z M108.26,3.27 C108.26,1.35909477 109.809095,-0.19 111.72,-0.19 C113.630905,-0.19 115.18,1.35909477 115.18,3.27 C115.18,5.18090523 113.630905,6.73 111.72,6.73 C109.809095,6.73 108.26,5.18090523 108.26,3.27 Z M113.68,3.27 C113.68,2.1654305 112.784569,1.27 111.68,1.27 C110.595005,1.29713331 109.729661,2.18466571 109.73,3.27 C109.71652,3.80904228 109.921267,4.33069044 110.297811,4.7166478 C110.674355,5.10260517 111.190789,5.32016853 111.73,5.32 C112.260488,5.30690368 112.764026,5.08352313 113.129757,4.69903672 C113.495488,4.3145503 113.693428,3.80047964 113.68,3.27 Z M116.17,3.27 C116.268811,1.43400431 117.786347,-0.00405646018 119.625,-0.00405646018 C121.463653,-0.00405646018 122.981189,1.43400431 123.08,3.27 C122.981189,5.10599569 121.463653,6.54405646 119.625,6.54405646 C117.786347,6.54405646 116.268811,5.10599569 116.17,3.27 Z M121.59,3.27 C121.59,2.1654305 120.694569,1.27 119.59,1.27 C118.485431,1.27 117.59,2.1654305 117.59,3.27 C117.57652,3.80904228 117.781267,4.33069044 118.157811,4.7166478 C118.534355,5.10260517 119.050789,5.32016853 119.59,5.32 C120.129211,5.32016853 120.645645,5.10260517 121.022189,4.7166478 C121.398733,4.33069044 121.60348,3.80904228 121.59,3.27 Z M124.36,3.24740235e-15 L127.36,3.24740235e-15 C128.056385,-0.0449457104 128.741442,0.193021449 129.26,0.66 C129.644783,1.05779208 129.84753,1.59724454 129.82,2.15 C129.861532,3.05720019 129.286618,3.87850506 128.42,4.15 L130,6.51 L128.33,6.51 L126.94,4.43 L125.81,4.43 L125.81,6.51 L124.38,6.51 L124.36,3.24740235e-15 Z M127.24,3.16 C127.94,3.16 128.34,2.79 128.34,2.24 C128.34,1.63 127.91,1.31 127.21,1.31 L125.79,1.31 L125.79,3.16 L127.24,3.16 Z M62.8,12.77 C62.8,10.8590948 64.3490948,9.31 66.26,9.31 C68.1709052,9.31 69.72,10.8590948 69.72,12.77 C69.72,14.6809052 68.1709052,16.23 66.26,16.23 C64.3490948,16.23 62.8,14.6809052 62.8,12.77 Z M68.22,12.77 C68.22,11.6654305 67.3245695,10.77 66.22,10.77 C65.1154305,10.77 64.22,11.6654305 64.22,12.77 C64.22,13.8745695 65.1154305,14.77 66.22,14.77 C66.7554157,14.7868319 67.273962,14.5815282 67.6527451,14.2027451 C68.0315282,13.823962 68.2368319,13.3054157 68.22,12.77 Z M71,9.49 L72.32,9.49 L75.32,13.49 L75.32,9.49 L76.74,9.49 L76.74,16 L75.56,16 L72.41,11.89 L72.41,16.03 L71,16.03 L71,9.49 Z M78.34,9.49 L80.88,9.49 C81.7759895,9.43198362 82.6560607,9.74722058 83.3114415,10.3609298 C83.9668223,10.974639 84.3391137,11.8321346 84.34,12.73 C84.3418801,13.6296032 83.9707963,14.4897448 83.3150921,15.1056519 C82.659388,15.721559 81.7777251,16.0381303 80.88,15.98 L78.34,15.98 L78.34,9.49 Z M79.78,10.79 L79.78,14.71 L80.88,14.71 C81.4121278,14.7540167 81.9373237,14.5659751 82.3205851,14.1942115 C82.7038465,13.8224479 82.9077931,13.3032214 82.88,12.77 C82.9191559,12.2285094 82.7210511,11.6967318 82.3371596,11.3128404 C81.9532682,10.9289489 81.4214906,10.7308441 80.88,10.77 L79.78,10.79 Z M85.62,9.49 L90.52,9.49 L90.52,10.77 L87,10.77 L87,12.09 L90.07,12.09 L90.07,13.36 L87,13.36 L87,14.73 L90.53,14.73 L90.53,16 L85.62,16 L85.62,9.49 Z M91.85,9.49 L94.85,9.49 C95.5457651,9.44956385 96.2291322,9.686944 96.75,10.15 C97.1241613,10.5537771 97.3220808,11.0899591 97.3,11.64 C97.3428196,12.5444535 96.772647,13.3648457 95.91,13.64 L97.5,15.96 L95.8,15.96 L94.4,13.89 L93.28,13.89 L93.28,15.97 L91.85,15.97 L91.85,9.49 Z M94.73,12.65 C95.43,12.65 95.83,12.28 95.83,11.73 C95.83,11.11 95.4,10.8 94.7,10.8 L93.28,10.8 L93.28,12.66 L94.73,12.65 Z M98.57,9.49 L99.89,9.49 L102.89,13.49 L102.89,9.49 L104.3,9.49 L104.3,16 L103.08,16 L100,11.89 L100,16.03 L98.57,16.03 L98.57,9.49 Z M105.92,9.49 L110.83,9.49 L110.83,10.77 L107.34,10.77 L107.34,12.09 L110.41,12.09 L110.41,13.36 L107.34,13.36 L107.34,14.73 L110.87,14.73 L110.87,16 L105.87,16 L105.92,9.49 Z M112.15,9.49 L113.69,9.49 L115.4,12.25 L117.11,9.49 L118.65,9.49 L118.65,16 L117.23,16 L117.23,11.75 L115.4,14.53 L113.59,11.78 L113.59,16 L112.19,16 L112.15,9.49 Z M120.22,9.49 L125.13,9.49 L125.13,10.77 L121.64,10.77 L121.64,12.09 L124.71,12.09 L124.71,13.36 L121.64,13.36 L121.64,14.73 L125.17,14.73 L125.17,16 L120.17,16 L120.22,9.49 Z M126.45,9.49 L129.45,9.49 C130.142683,9.45003873 130.82277,9.68752938 131.34,10.15 C131.716842,10.5527705 131.918276,11.0887287 131.9,11.64 C131.94282,12.5444535 131.372647,13.3648457 130.51,13.64 L132.1,15.96 L130.4,15.96 L129,13.89 L127.87,13.89 L127.87,15.97 L126.44,15.97 L126.45,9.49 Z M129.33,12.65 C130.03,12.65 130.43,12.28 130.43,11.73 C130.43,11.11 130,10.8 129.31,10.8 L127.88,10.8 L127.88,12.66 L129.33,12.65 Z M132.73,15.05 L133.58,14.05 C134.110742,14.5378733 134.799419,14.8183136 135.52,14.84 C136.1,14.84 136.46,14.61 136.46,14.23 C136.46,13.86 136.23,13.68 135.15,13.4 C133.84,13.07 132.99,12.7 132.99,11.4 C132.984257,10.8172885 133.232947,10.2610517 133.671027,9.87677105 C134.109107,9.49249036 134.693003,9.31838812 135.27,9.4 C136.145603,9.38678774 136.998219,9.68042746 137.68,10.23 L136.94,11.31 C136.455837,10.9280356 135.865724,10.7045607 135.25,10.67 C134.7,10.67 134.41,10.92 134.41,11.23 C134.41,11.66 134.69,11.8 135.82,12.09 C137.14,12.43 137.88,12.9 137.88,14.04 C137.88,15.33 136.88,16.04 135.49,16.04 C134.479879,16.0586879 133.497944,15.7064721 132.73,15.05 Z"></path><title>KVK Werkt voor ondernemers</title></svg>