<?xml version="1.0" encoding="UTF-8"?>
<svg width="58px" height="58px" viewBox="0 0 58 58" version="1.1" xmlns="http://www.w3.org/2000/svg" xmlns:xlink="http://www.w3.org/1999/xlink">
    <defs>
        <path d="M57,14.57 C56.77,14.36 56.54,14.17 56.29,13.98 C56.04,13.79 55.89,13.69 55.68,13.55 L55.57,13.5 C55.0709017,13.1595739 54.5459714,12.8586584 54,12.6 L54,18.6 C55.2905294,19.9031884 56.0100322,21.6659702 56,23.5 L56,35.5 C56,39.3659932 52.8659932,42.5 49,42.5 L43,42.5 L43,51.5 L34.36,42.87 L30.86,46.37 L39.47,55.04 L44.3,59.87 C45.1498364,60.7127222 46.5201636,60.7127222 47.37,59.87 C47.7735071,59.4589358 47.9997025,58.9060136 48,58.33 L48,47.5 L49,47.5 C55.627417,47.5 61,42.127417 61,35.5 L61,23.5 C60.9959425,20.0902265 59.5414991,16.8431815 57,14.57 Z M38,8.5 C41.8659932,8.5 45,11.6340068 45,15.5 L45,27.5 C45,31.3659932 41.8659932,34.5 38,34.5 L30,34.5 L21,43.5 L21,34.5 L15,34.5 C11.1340068,34.5 8,31.3659932 8,27.5 L8,15.5 C8,11.6340068 11.1340068,8.5 15,8.5 L38,8.5 L38,8.5 Z M38,3.5 L15,3.5 C8.372583,3.5 3,8.872583 3,15.5 L3,27.5 C3,34.127417 8.372583,39.5 15,39.5 L16,39.5 L16,50.33 C16.0035534,51.2049407 16.532211,51.9921567 17.3407574,52.3265016 C18.1493039,52.6608465 19.0795478,52.476906 19.7,51.86 L32.07,39.5 L38,39.5 C44.627417,39.5 50,34.127417 50,27.5 L50,15.5 C50,8.872583 44.627417,3.5 38,3.5 Z" id="path-1"></path>
    </defs>
    <g id="Page-1" stroke="none" stroke-width="1" fill="none" fill-rule="evenodd">
        <g id="Grid-(desktop)" transform="translate(-47.000000, -878.000000)">
            <g id="icon/chat" transform="translate(44.000000, 875.000000)">
                <g>
                    <g id="Kader">
                        <rect id="Rectangle" x="0" y="0" width="64" height="64"></rect>
                    </g>
                    <mask id="mask-2" fill="#fff">
                        <use xlink:href="#path-1"></use>
                    </mask>
                    <use id="shape" fill="#343434" xlink:href="#path-1"></use>
                </g>
            </g>
        </g>
    </g>
</svg>