<svg id="Laag_1" data-name="Laag 1" xmlns="http://www.w3.org/2000/svg" viewBox="0 0 296 128"><defs><style>.cls-1{fill:#907253;}.cls-2{fill:#bfa084;}.cls-3{fill:#8f7b69;opacity:0.3;}.cls-4{fill:#6c563e;opacity:0.6;}.cls-5{fill:#00a694;}.cls-6{fill:#eb5c55;}.cls-7{fill:none;}</style></defs><title>kvk_mini-illustratie_plaatsings document</title><path class="cls-1" d="M22.14,44.07s4,6,10.29,4l5.44-2.21h9l7.65,4.71S64.18,57,73.3,56.12l-5.15,1.33s14,8.52,19.7,9.11l6.91-3.38-2.93-6.42-8.68-19-12.61,1.9-5.62-1.45L48,36.27l-14.7,1.47Z"/><path class="cls-2" d="M13.86,76.35l-1-27.19L22.68,48A9.57,9.57,0,0,0,34.15,49.3l3.38-1.17,7.64-.3,9,5L79.87,65.92l9,3.44a10.92,10.92,0,0,1-.81,4.89c-2.91,1.28-7,.63-7,.63l-.14,4s-.3,3.24-3.24,3.53l-2.94.3-.15,2.79a9.64,9.64,0,0,1-7.35,4.26s-.14,2.94-4.11,4.41L52.82,92.53l-1.18-2.87s-1.66-4.53-6.1-3.75c0,0-.22-6.1-7.94-6.91l-1,2.57s-2.72-3.82-7.42-.58l-4.92-4-2.8,1.33Z"/><path class="cls-1" d="M23.5,79.08l5.44,4.26s1.32-2.35,4.7-1.62,2.38,6,2.38,6l2.18-6.14s6.62.14,5.44,7c0,0,4.7-2.79,6.62,3.68l.58,1.62,4.41,1-7.2,2.35-5.59-4.12-3.67.59a7.48,7.48,0,0,1-3.38-3.24l-4,.49a15.41,15.41,0,0,1-3.07-5l-6.47-.74a6.67,6.67,0,0,1-1.47-3.53A6.22,6.22,0,0,1,23.5,79.08Z"/><path class="cls-3" d="M45.17,47.83l-7.64.3L34.15,49.3A9.57,9.57,0,0,1,22.68,48l-9.85,1.18,1,27.19S15,56,17.14,51.71l3.19,2.66,6.22.47,8-4.31Z"/><path class="cls-4" d="M36.45,42.11l-4,5.93,5.44-2.21h9l7.65,4.71S64.18,57,73.3,56.12l-5.15,1.33s14,8.52,19.7,9.11l6.91-3.38-2.93-6.42-9.52,4.36-7-4.9,9.41-3.33C63.1,56.22,48.4,45.44,48.4,45.44V39.17l-2,5.48-9.21-.39Z"/><polygon class="cls-5" points="13.38 48.26 14.17 78.45 3.98 79.6 4.01 47.73 13.38 48.26"/><polygon class="cls-6" points="82.47 37.31 94.99 64.48 101.32 60.92 94.57 32.98 82.47 37.31"/><path class="cls-3" d="M71.05,71.7l-7.94-2.79,14.31,7c-.59,3.14-4.22,5.69-4.22,5.69l-6.56-1.08L57,76.71l12.67,7.34.59,2.55-4.15,2L55.76,87.7l-8.5-4L44,78.82,37.6,79c7.91,1,7.94,6.91,7.94,6.91,4.6-.73,6.1,3.75,6.1,3.75l1.18,2.87,10.29,1.61c3.93-1.43,4.11-4.41,4.11-4.41a9.67,9.67,0,0,0,7.35-4.26l.2-2.79a25.18,25.18,0,0,1,2.89-.3c3.09-.16,3.24-3.53,3.24-3.53l.14-4Z"/><rect class="cls-7" width="296" height="128"/></svg>