<?xml version="1.0" encoding="UTF-8"?>
<svg width="158px" height="43px" viewBox="0 0 158 43" version="1.1" xmlns="http://www.w3.org/2000/svg" xmlns:xlink="http://www.w3.org/1999/xlink">
    <!-- Generator: Sketch 57.1 (83088) - https://sketch.com -->
    <title>Logo</title>
    <desc>Created with Sketch.</desc>
    <g id="Desktop" stroke="none" stroke-width="1" fill="none" fill-rule="evenodd">
        <g id="E-mail" transform="translate(-401.000000, -60.000000)" fill="#00526E" fill-rule="nonzero">
            <g id="Logo" transform="translate(401.000000, 60.000000)">
                <path d="M128.102457,26.3673612 C127.729111,25.7552083 127.475236,25.4267362 127.146692,25.2326388 C126.429868,24.7996528 125.429301,25.0684028 124.981285,25.8298612 C124.712476,26.3225695 124.712476,27.4125 124.712476,27.7857638 L124.712476,43 L107.523629,43 L107.523629,0 L124.72741,0 L124.72741,18.140625 L137.839319,0 L156.775425,0 L141.946125,18.9170138 L158,43 L138.391871,43 L128.102457,26.3673612 Z M66.9185256,43 L86.3474479,43 L102.31172,0 L84.9137995,0 L77.3871455,23.9784722 L77.2676749,23.9784722 L69.8156899,0 L51.6710774,0 L66.9185256,43 Z M30.868242,43 L50.4763706,43 L34.4224952,18.9170138 L49.2517958,0 L30.31569,0 L17.2037807,18.140625 L17.2037807,0 L0,0 L0,43 L17.1888469,43 L17.1888469,27.7857638 C17.1888469,27.4125 17.1888469,26.3225695 17.457656,25.8298612 C17.9056711,25.0684028 18.9062382,24.7996528 19.6230624,25.2326388 C19.9516067,25.4267362 20.205482,25.7552083 20.5788279,26.3673612 L30.868242,43 Z" id="Shape"></path>
            </g>
        </g>
    </g>
</svg>