<svg class="" focusable="false" width="24px" height="24px" xmlns="http://www.w3.org/2000/svg" viewBox="0 0 64 64"><rect width="64" height="64" style="fill: none;"></rect><path d="M32,0A32,32,0,1,1,0,32,32,32,0,0,1,32,0ZM43.27,43.27H38.53V35.84c0-1.77,0-4.05-2.47-4.05s-2.85,1.93-2.85,3.92v7.56H28.47V28H33v2.08h.06a5,5,0,0,1,4.49-2.46c4.81,0,5.7,3.16,5.7,7.27ZM23.12,25.91a2.75,2.75,0,1,1,2.75-2.75A2.75,2.75,0,0,1,23.12,25.91ZM20.74,43.27V28h4.75V43.27ZM18.36,16A2.33,2.33,0,0,0,16,18.31V45.69A2.33,2.33,0,0,0,18.36,48H45.63A2.34,2.34,0,0,0,48,45.69V18.31A2.34,2.34,0,0,0,45.63,16Z"></path></svg>