<?xml version="1.0" encoding="UTF-8"?>
<svg width="56px" height="56px" viewBox="0 0 56 56" version="1.1" xmlns="http://www.w3.org/2000/svg" xmlns:xlink="http://www.w3.org/1999/xlink">
    <defs>
        <path d="M56.8969352,41.1126549 C40.6726309,33.9920423 43.307347,33.0810368 36.7320625,39.6624808 C31.6210577,36.6011391 27.3454354,32.3213345 24.2860455,27.2042894 C30.8890438,20.596393 29.8962479,23.246345 22.8380222,7.12639632 C22.3935002,6.11118423 21.4691384,4 18.927769,4 C15.6022078,4 3.90256363,8.83508283 4.00061261,17.5588728 C4.07484969,24.086911 9.11976971,35.7030334 18.6814459,45.2737018 C28.2422217,54.8447711 39.8459179,59.9265428 46.3679758,60 C52.9856815,60.0317514 57.8526126,53.246804 59.6474091,47.1142497 C60.5424562,44.0558882 59.7715711,42.3734537 56.8969352,41.1126549 Z M46.468526,55.0070928 C41.8336108,54.9701195 31.2608295,50.8060666 22.2077074,41.7432046 C13.1550854,32.6798416 9.04033003,22.1116962 8.98824718,17.5025612 C8.94708345,13.8068365 13.920968,10.4059963 18.2808458,9.15531751 C19.0846473,10.9923584 23.6114085,20.8035035 23.6157107,20.8139241 L18.185098,26.2513007 C22.6309188,35.559048 29.3923962,41.7997166 37.6836378,45.770787 C37.7604762,45.6938345 43.0376122,40.409862 43.115251,40.3343123 C43.2076972,40.3732895 53.0265019,44.8658936 54.8704229,45.6754982 C53.9600682,49.3034886 50.3896847,55.0070928 46.468526,55.0070928 Z" id="path-1"></path>
    </defs>
    <g id="Page-1" stroke="none" stroke-width="1" fill="none" fill-rule="evenodd">
        <g id="Grid-(desktop)" transform="translate(-608.000000, -675.000000)">
            <g id="icon/phone" transform="translate(604.000000, 671.000000)">
                <g>
                    <g id="Kader">
                        <rect id="Rectangle" x="0" y="0" width="64" height="64"></rect>
                    </g>
                    <mask id="mask-2" fill="#fff">
                        <use xlink:href="#path-1"></use>
                    </mask>
                    <use id="Shape" fill="#343434" xlink:href="#path-1"></use>
                </g>
            </g>
        </g>
    </g>
</svg>