<?xml version="1.0" encoding="UTF-8"?>
<svg width="57px" height="57px" viewBox="0 0 57 57" version="1.1" xmlns="http://www.w3.org/2000/svg" xmlns:xlink="http://www.w3.org/1999/xlink">
    <!-- Generator: Sketch 61.2 (89653) - https://sketch.com -->
    <title>icon/reply</title>
    <desc>Created with Sketch.</desc>
    <g id="Page-1" stroke="none" stroke-width="1" fill="none" fill-rule="evenodd">
        <g id="Grid-(desktop)" transform="translate(-607.000000, -776.000000)">
            <g id="icon/share" transform="translate(604.000000, 773.000000)">
                <g>
                    <g id="Kader">
                        <rect id="Rectangle" x="0" y="0" width="64" height="64"></rect>
                    </g>
                    <path d="M48.4695,36.9996 C44.9385,36.9996 41.7774,38.602 39.6663,41.1145 L26.5964,34.3547 C27.0769,32.4847 27.1109,30.6475 26.5971,28.6459 L39.667,21.8852 C41.7781,24.3974 44.939,25.9997 48.4695,25.9997 C54.8115,25.9997 59.9708,20.8411 59.9708,14.4998 C59.9708,8.1585 54.8115,2.9999 48.4695,2.9999 C41.0362,2.9999 35.4007,10.0442 37.3667,17.4455 L24.3374,24.1852 C22.2261,21.6306 19.0344,19.9997 15.4685,19.9997 C9.1276,19.9997 3.9692,25.1578 3.9692,31.4986 C3.9692,37.8403 9.1275,42.9995 15.4685,42.9995 C19.0337,42.9995 22.2248,41.3689 24.3362,38.8147 L37.3665,45.5542 C35.398,52.9678 41.0491,59.9993 48.4695,59.9993 C54.8115,59.9993 59.9708,54.8402 59.9708,48.4984 C59.9708,42.1577 54.8115,36.9996 48.4695,36.9996 Z M48.4695,7.9999 C52.0546,7.9999 54.9707,10.9159 54.9707,14.4998 C54.9707,18.0838 52.0546,20.9997 48.4695,20.9997 C45.0899,20.9997 42.2804,18.3961 41.9981,15.0497 C41.6748,11.1976 44.7224,7.9999 48.4695,7.9999 Z M19.7048,36.4193 C15.5116,40.0344 8.9693,37.0528 8.9693,31.4986 C8.9693,25.9498 15.5095,22.9616 19.7062,26.5807 C22.718,29.1777 22.7219,33.8183 19.7048,36.4193 Z M48.4695,54.9994 C42.3924,54.9994 39.6835,47.3814 44.3062,43.5142 C48.5154,39.9919 54.9708,42.9919 54.9708,48.4985 C54.9708,52.0829 52.0546,54.9994 48.4695,54.9994 Z" id="Shape" fill="#343434" fill-rule="nonzero"></path>
                </g>
            </g>
        </g>
    </g>
</svg>