<?xml version="1.0" encoding="UTF-8"?>
<svg width="50px" height="50px" viewBox="0 0 50 50" version="1.1" xmlns="http://www.w3.org/2000/svg" xmlns:xlink="http://www.w3.org/1999/xlink">
    <defs>
        <path d="M43.7515622,40.2103055 C46.5754635,36.6108167 48.1216028,32.2085105 48.1216028,27.5611508 C48.1216028,9.23690135 25.8842359,0.164481947 13.0268881,13.0232511 C4.99248026,21.0581696 4.98976226,34.0635279 13.0263848,42.0994532 C20.4846773,49.5575796 32.1557691,50.0726553 40.2120216,43.751199 L53.4601574,57 L57,53.4600127 L43.7515622,40.2103055 Z M27.5637585,43.1145026 C13.6571621,43.1145026 6.86175956,26.2687297 16.5673347,16.5635405 C26.3705565,6.75817526 43.1149462,13.8117719 43.1149462,27.5610501 C43.1149462,36.154135 36.160289,43.1145026 27.5637585,43.1145026 L27.5637585,43.1145026 Z" id="path-1"></path>
    </defs>
    <g id="Page-1" stroke="none" stroke-width="1" fill="none" fill-rule="evenodd">
        <g id="Grid-(desktop)" transform="translate(-611.000000, -576.000000)">
            <g id="icon/search" transform="translate(604.000000, 569.000000)">
                <g>
                    <g id="Kader">
                        <rect id="Rectangle" x="0" y="0" width="64" height="64"></rect>
                    </g>
                    <mask id="mask-2" fill="#fff">
                        <use xlink:href="#path-1"></use>
                    </mask>
                    <use id="Shape" fill="#343434" xlink:href="#path-1"></use>
                </g>
            </g>
        </g>
    </g>
</svg>