<svg id="Laag_1" data-name="Laag 1" xmlns="http://www.w3.org/2000/svg" viewBox="0 0 296 128"><defs><style>.cls-1{fill:#eb5c55;}.cls-2{fill:#00526e;}.cls-3{fill:#ff9300;}.cls-4{fill:#00a694;}.cls-5{fill:#9b9b9b;}.cls-6{fill:#757575;}.cls-7{fill:#283241;opacity:0.15;}.cls-8{fill:none;}</style></defs><title>kvk_mini-illustratie_plaatsings document</title><path class="cls-1" d="M23.32,66.22l-13,.46.16,4.83,12.71-.22c0-.51-.08-1-.08-1.52A27.59,27.59,0,0,1,23.32,66.22Z"/><path class="cls-2" d="M15.22,75.32l.16,5.49,9.81-.49a27.31,27.31,0,0,1-1.6-5.23Z"/><path class="cls-3" d="M27.45,84.54l-13.72.17.16,5.5,17.88-.49A28.23,28.23,0,0,1,27.45,84.54Z"/><path class="cls-2" d="M10.08,56.92l.16,5.49,14.06-.76a27.13,27.13,0,0,1,2.32-5.32Z"/><path class="cls-2" d="M54.24,42.39l9.46-.27-.15-5.27L3.49,38.29l.16,5.51,42.74-1.19a28.66,28.66,0,0,1,4.67-.41A27.71,27.71,0,0,1,54.24,42.39Z"/><path class="cls-4" d="M35.67,46.75l-21.26.58.16,5.51,14.9-.62A27.68,27.68,0,0,1,35.67,46.75Z"/><polygon class="cls-2" points="71.37 27.66 13.87 28.96 14.03 34.47 71.52 32.94 71.37 27.66"/><path class="cls-2" d="M89,113.21,74.21,98.67a2.69,2.69,0,0,1,0-3.83l2.07-2a2.8,2.8,0,0,1,3.89,0l14.77,14.54a4.12,4.12,0,0,1,0,5.87h0A4.27,4.27,0,0,1,89,113.21Z"/><path class="cls-5" d="M75.42,91.06l-3.84-3.78c-.45.52-.92,1-1.42,1.53s-1,1-1.56,1.41L72.44,94Z"/><path class="cls-6" d="M71.58,87.28l-2.12-2.09-3,2.94,2.12,2.09c.53-.45,1.05-.91,1.56-1.41S71.13,87.8,71.58,87.28Z"/><path class="cls-5" d="M65.7,54.84a20.71,20.71,0,0,1,0,29.59,21.49,21.49,0,0,1-30,0,20.73,20.73,0,0,1,0-29.59,21.49,21.49,0,0,1,30,0m3.58-3.52a26.59,26.59,0,0,0-37.2,0,25.63,25.63,0,0,0,0,36.63,26.59,26.59,0,0,0,37.2,0,25.63,25.63,0,0,0,0-36.63Z"/><path class="cls-5" d="M65.7,54.84a20.71,20.71,0,0,1,0,29.59,21.49,21.49,0,0,1-30,0,20.73,20.73,0,0,1,0-29.59,21.49,21.49,0,0,1,30,0m3.58-3.52a26.59,26.59,0,0,0-37.2,0,25.63,25.63,0,0,0,0,36.63,26.59,26.59,0,0,0,37.2,0,25.63,25.63,0,0,0,0-36.63Z"/><polygon class="cls-4" points="71.37 27.66 13.87 28.96 14.03 34.47 71.52 32.94 71.37 27.66"/><path class="cls-2" d="M59.7,54.62,38,55.37a18.57,18.57,0,0,0-6,11.85l28.19-1Z"/><path class="cls-1" d="M59.05,73.53l-26.53.91a19.45,19.45,0,0,0,7.82,10.74l19.09-.66Z"/><path class="cls-7" d="M50,50.59A18.63,18.63,0,0,0,31.8,70a19.23,19.23,0,0,0,6.75,13.8L63.26,55.5A19.23,19.23,0,0,0,50,50.59Z"/><rect class="cls-8" width="296" height="128"/></svg>