<svg id="Laag_1" data-name="Laag 1" xmlns="http://www.w3.org/2000/svg" viewBox="0 0 296 128"><defs><style>.cls-1{fill:#eb5c55;}.cls-2{fill:#ff9300;}.cls-3{fill:#373737;opacity:0.2;}.cls-4{fill:#283241;}.cls-5{fill:#00a694;}.cls-6{fill:#00526e;}.cls-7{fill:#e94e1b;opacity:0.5;}.cls-8{fill:none;}</style></defs><title>kvk_mini-illustratie_plaatsings document</title><polygon class="cls-1" points="44.55 97.97 42.47 93.32 34.09 89.48 18.89 101.43 15.19 91.45 8.01 95.45 7.1 101.57 38.26 108.08 39.42 100.95 44.55 97.97"/><path class="cls-2" d="M32.45,66c2.38-11.21-8.92-15.49-8.92-15.49S8.63,44.58,4.89,59.55a29.33,29.33,0,0,0-.82,8.14L1.8,72A18.38,18.38,0,0,0,4.65,73,37.77,37.77,0,0,0,8.56,84.09a22.81,22.81,0,0,0,10.27-1.57c-.09,7.28-3.64,8.93-3.64,8.93l3.7,10,15.2-12c-4.61-2.29-5-7-4.07-12.44C30.59,73.55,31.66,69.73,32.45,66Z"/><path class="cls-3" d="M18.57,85.53a24.48,24.48,0,0,0,.26-3,17.22,17.22,0,0,0,7-7S24.94,82.74,18.57,85.53Z"/><path class="cls-3" d="M5.66,57.11c4.68-11.85,17.87-6.62,17.87-6.62S34.83,54.77,32.45,66C31.72,69.45,30.73,73.33,30,77l-1.47-.47-3.2-7A5.46,5.46,0,0,0,27.42,66c.26-2.05-.82-3-2-3.15-4.09-.41-3.54,8.65-3.54,8.65H20.3s.24-4.46-1.93-6.62a22.77,22.77,0,0,0,1.93-6.26S14.75,55.93,5.66,57.11Z"/><path class="cls-4" d="M32.45,66,30,77c.58-13.21-1.47-18.45-1.47-18.45C18.41,54,5.66,57.11,5.66,57.11S4.07,44.65,20.9,44.84a14.08,14.08,0,0,0-3.67,3s10.63,2.07,16.24,8.27A12.87,12.87,0,0,0,29.24,54S34.49,57.71,32.45,66Z"/><path class="cls-2" d="M78,74.16c.14-2.37,2.21-23.73-19.8-23.81-10.23,0-16.24,10.42-10.1,24.23a35.08,35.08,0,0,0,2.08,4l-.05.08L52.64,83A17.64,17.64,0,0,1,51.1,97L63,108.2l2.19-9.49a8.14,8.14,0,0,1-1.87-9.82c3.77,1.59,10.4,2.41,10.4,2.41,2-3.64,4.13-8.25,4.61-10.94l2.19-1.08Z"/><polygon class="cls-5" points="65.17 98.71 62.97 108.2 51.1 97.03 41.38 102.49 40.01 112.05 73.67 109.17 72.77 105.22 65.17 98.71"/><path class="cls-3" d="M62.48,91.71a10.1,10.1,0,0,1,.81-2.82,39.58,39.58,0,0,1-8.41-5.15A13.23,13.23,0,0,0,62.48,91.71Z"/><polygon class="cls-6" points="34.9 42.46 48.15 42.65 52.3 48.03 52.53 42.73 65.78 42.96 66.91 27.16 35.36 27.37 34.9 42.46"/><polygon class="cls-5" points="42.51 17.89 10.36 17.58 11.56 37.6 24.45 37.4 24.22 47.11 29.08 37.2 32.78 37 33.46 25.49 42.25 25.32 42.51 17.89"/><path class="cls-7" d="M78,74.16c.14-2.37,2.21-23.73-19.8-23.81-10.23,0-16.24,10.42-10.1,24.23a35.08,35.08,0,0,0,2.08,4l-.05.08L52.64,83A17.64,17.64,0,0,1,51.1,97L63,108.2l2.19-9.49a8.14,8.14,0,0,1-1.87-9.82c3.77,1.59,10.4,2.41,10.4,2.41,2-3.64,4.13-8.25,4.61-10.94l2.19-1.08Z"/><path class="cls-4" d="M73.09,52.78A14,14,0,0,1,80,54.46S69,42,52.66,50.49c0,0-14,5.88-9.47,20.13a24.53,24.53,0,0,0,1.56,3.72C42.43,74.86,35.57,77,33,84.05l6.43,5.41,2.1-4,.34,2.93,4.08.18a26,26,0,0,1,1.62-9.72,21.73,21.73,0,0,0,2.17,2.38c2.17,2-.27,4.3-.27,4.3C52,85.66,52.64,83,52.64,83c1.19-4.26,5.13-7.14,5.13-7.14s-2.28-.9-2.07-4.77c.26-4.65,4.48-4.64,4.67-.08s3.25,5.37,3.25,5.37-3.06-4.83,3.61-10.3c3.92-3.22,2-8.39,2-8.39s1.1,2.77,6.34,4.73c0,0,4.69,2.5,4.4,6.37C79.94,68.83,85.51,57.8,73.09,52.78Z"/><rect class="cls-8" width="296" height="128"/></svg>