<?xml version="1.0" encoding="UTF-8"?>
<svg width="56px" height="52px" viewBox="0 0 56 52" version="1.1" xmlns="http://www.w3.org/2000/svg" xmlns:xlink="http://www.w3.org/1999/xlink">
    <!-- Generator: Sketch 61.2 (89653) - https://sketch.com -->
    <title>icon/thumb_up</title>
    <desc>Created with Sketch.</desc>
    <g id="Page-1" stroke="none" stroke-width="1" fill="none" fill-rule="evenodd">
        <g id="Grid-(desktop)" transform="translate(-48.000000, -575.000000)">
            <g id="icon/like" transform="translate(44.000000, 569.000000)">
                <g>
                    <g id="Kader" transform="translate(-0.000000, 0.000000)">
                        <rect id="Rectangle" transform="translate(32.000000, 32.000000) rotate(90.000000) translate(-32.000000, -32.000000) " x="0" y="0" width="64" height="64"></rect>
                    </g>
                    <path d="M57.9,37.7 C58.1,36.7 60,34.8 60,31.3 C60,26.7 56.8,24 51.7,24 C51.7,24 51.7,24 51.7,24 C50.4,24 49.1,24.1 48,24.1 C45.3,24.1 43.2,23.8 43.1,22.1 C42.8,18.4 46.2,16.3 46,12.3 C45.8,10 44.6,8 42.6,6.9 C41.5,6.3 40.3,6 39,6 C37.7,6 36.4,6.3 35.1,7 C32.8,8.3 28.1,14.1 26.5,16.1 C22.5,21.1 18.9,25.4 12.9,25.9 L12.9,47.9 L9,47.9 L9,26 L4,26 L4,53 L18,53 L18,30 C23.5,28 27.2,23.4 30.5,19.3 C35.9,12.6 37.6,11.4 37.7,11.4 C38.2,11.1 38.7,11 39.1,11 C39.5,11 39.9,11.1 40.2,11.3 C40.7,11.6 41,12 41,12.6 C41,13.2 40.7,13.9 40.1,15.1 C39.2,16.9 37.9,19.3 38.2,22.6 C38.4,25.4 40.3,27.7 43.2,28.6 C44.8,29.1 46.6,29.2 48.1,29.2 C48.7,29.2 49.3,29.2 50,29.2 C50.6,29.2 51.2,29.2 51.9,29.2 C55.2,29.2 55.2,30.6 55.2,31.5 C55.2,32.6 54.8,33.4 54.3,34.3 C53.9,35 53.5,35.7 53.3,36.7 C53,38 53.1,39.2 53.1,40.2 C53.2,41.9 53.3,43.2 51.4,45.4 C49.9,47.1 49.3,47.9 48.8,49.5 L48.7,49.7 C48.3,50.8 47.4,53.2 41,53.2 C37.3,53.2 33.7,52.2 30.3,50.2 C28,48.9 24.8,48.4 22.6,48.2 L22,48 L22,53 C24.3,53.2 26.4,53.7 27.5,54.3 C31.6,56.7 36.1,58 40.7,58 C46.3,58 51.2,56.5 53.1,51.2 C53.4,50.3 53.5,50.1 54.8,48.5 C59.5,43.4 57.4,39.7 57.9,37.7 Z" id="Path" fill="#343434" fill-rule="nonzero"></path>
                </g>
            </g>
        </g>
    </g>
</svg>