<svg class="" focusable="false" width="24px" height="24px" xmlns="http://www.w3.org/2000/svg" viewBox="0 0 64 64"><rect width="64" height="64" style="fill: none;"></rect><path d="M32,0A32,32,0,1,1,0,32,32,32,0,0,1,32,0ZM25.24,46.64c14.19,0,22-11.76,22-21.95,0-.34,0-.67,0-1a15.79,15.79,0,0,0,3.86-4,15.86,15.86,0,0,1-4.43,1.21A7.71,7.71,0,0,0,50,16.64a15.61,15.61,0,0,1-4.9,1.87,7.72,7.72,0,0,0-13.34,5.28A6.79,6.79,0,0,0,32,25.55a21.9,21.9,0,0,1-15.91-8.06,7.71,7.71,0,0,0,2.4,10.29,7.73,7.73,0,0,1-3.48-1v.09a7.72,7.72,0,0,0,6.19,7.57,7.54,7.54,0,0,1-2,.27,7.85,7.85,0,0,1-1.46-.14A7.71,7.71,0,0,0,24.87,40a15.53,15.53,0,0,1-9.58,3.29,13.89,13.89,0,0,1-1.84-.11,21.46,21.46,0,0,0,11.79,3.49"></path></svg>