<?xml version="1.0" encoding="UTF-8"?>
<svg width="60px" height="45px" viewBox="0 0 60 45" version="1.1" xmlns="http://www.w3.org/2000/svg" xmlns:xlink="http://www.w3.org/1999/xlink">
    <!-- Generator: Sketch 61.2 (89653) - https://sketch.com -->
    <title>icon/upload</title>
    <desc>Created with Sketch.</desc>
    <g id="Page-1" stroke="none" stroke-width="1" fill="none" fill-rule="evenodd">
        <g id="Grid-(desktop)" transform="translate(-606.000000, -271.000000)">
            <g id="icon/cloud-upload" transform="translate(604.000000, 263.000000)">
                <g>
                    <g id="Kader">
                        <rect id="Rectangle" x="0" y="0" width="64" height="64"></rect>
                    </g>
                    <path d="M31.5,27.2 L18.9,40.5 L22.5,43.9 L29,37 L29,53 L34,53 L34,37.1 L40.5,44 L44.1,40.6 L31.5,27.2 Z M48.1,22.1 C45.8,13.8 38.4,8 29.8,8 C24.2,8 19.1,10.1 15.6,13.9 C12.5,17.3 10.8,21.9 10.7,26.9 C5.3,29 2,33.8 2,39.7 C2,47 8,53 15.3,53 L22,53 L22,48 L15.3,48 C10.7,48 7,44.3 7,39.7 C7,35.5 9.6,32.3 14,31.2 L16,30.7 L15.8,28.6 C15.5,24.1 16.7,20.2 19.3,17.3 C21.8,14.6 25.6,13 29.8,13 C36.6,13 42.4,17.9 43.6,24.7 L43.9,26.6 L45.8,26.7 C52.4,27.3 57,31.7 57,37.4 C57,43.2 52.3,48 46.5,48 L41,48 L41,53 L46.5,53 C55,53 62,46 62,37.4 C62,29.5 56.4,23.4 48.1,22.1 Z" id="Shape" fill="#343434" fill-rule="nonzero"></path>
                </g>
            </g>
        </g>
    </g>
</svg>