<svg class="" focusable="false" width="24px" height="24px" viewBox="0 0 24 24" version="1.1" xmlns="http://www.w3.org/2000/svg"><circle cx="12" cy="12" r="12"></circle><path fill="#fff" fill-rule="nonzero" d="M15.2875,13.4775 C15.2475,13.41 15.14,13.37 14.9775,13.29 C14.815,13.21 14.02,12.82 13.8725,12.7675 C13.725,12.715 13.6225,12.6875 13.5075,12.8475 C13.3925,13.0075 13.09,13.37 13.0075,13.4775 C12.925,13.585 12.82,13.5975 12.6575,13.5175 C12.1810511,13.3282427 11.7411595,13.0575401 11.3575,12.7175 C11.0040024,12.3923939 10.7006998,12.0166357 10.4575,11.6025 C10.3625,11.4425 10.4575,11.3525 10.5275,11.275 C10.5975,11.1975 10.69,11.0875 10.7775,10.9925 C10.8441683,10.9115546 10.8988913,10.8214722 10.94,10.725 C10.9880195,10.6369551 10.9880195,10.5305449 10.94,10.4425 C10.9,10.3625 10.575,9.57 10.44,9.2475 C10.305,8.925 10.175,8.975 10.075,8.97 C9.975,8.965 9.8725,8.97 9.765,8.97 C9.59888146,8.97414478 9.44206481,9.04756761 9.3325,9.1725 C8.96110604,9.51397859 8.74982604,9.99547936 8.75,10.5 C8.75,11.2925 9.33,12.0575 9.41,12.165 C9.49,12.2725 10.55,13.8975 12.16,14.595 C12.4613005,14.7244933 12.7692293,14.8379847 13.0825,14.935 C13.4120799,15.0350411 13.7603694,15.0572905 14.1,15 C14.41,14.955 15.0575,14.61 15.1925,14.235 C15.2969464,13.9970529 15.3299528,13.7338701 15.2875,13.4775 Z M9.09,16.4375 L9.2875,16.5525 C10.1202555,17.0447462 11.0701395,17.3038055 12.0375,17.3025 C13.9515504,17.3025 15.720206,16.2813663 16.6772312,14.62375 C17.6342564,12.9661337 17.6342564,10.9238663 16.6772312,9.26624998 C15.720206,7.6086337 13.9515504,6.58749997 12.0375,6.5875 C10.0823488,6.57400856 8.27540368,7.62765519 7.32419638,9.33587147 C6.37298908,11.0440877 6.428886,13.1350439 7.47,14.79 L7.5975,14.9925 L7.055,16.9675 L9.09,16.4375 Z M5.5,18.5 L6.4175,15.1625 C4.79005174,12.361254 5.47956831,8.78869309 8.03259286,6.79429274 C10.5856174,4.79989238 14.2188442,4.99556412 16.5429012,7.25262548 C18.8669583,9.50968684 19.1687905,13.135638 17.2498995,15.7458917 C15.3310085,18.3561454 11.7801385,19.1498372 8.9325,17.605 L5.5,18.5 Z"></path></svg>