<svg class="c-footer__socials-icon" focusable="false" width="32px" height="32px" style="transform:" data-ui-test-class="Youtube" xmlns="http://www.w3.org/2000/svg" viewBox="0 0 64 64"><rect width="64" height="64" style="fill:none"></rect><path d="M27.63,25.64,38.78,32,27.63,38.33ZM64,32A32,32,0,1,1,32,0,32,32,0,0,1,64,32ZM53.32,32s0-7-.89-10.34a5.35,5.35,0,0,0-3.77-3.79C45.33,17,32,17,32,17s-13.33,0-16.66.9a5.35,5.35,0,0,0-3.77,3.79C10.67,25,10.67,32,10.67,32s0,7,.89,10.33a5.36,5.36,0,0,0,3.77,3.8C18.66,47,32,47,32,47s13.34,0,16.67-.89a5.36,5.36,0,0,0,3.77-3.8C53.32,39,53.32,32,53.32,32Z"></path></svg>