<?xml version="1.0" encoding="UTF-8"?>
<svg width="42px" height="42px" viewBox="0 0 42 42" version="1.1" xmlns="http://www.w3.org/2000/svg" xmlns:xlink="http://www.w3.org/1999/xlink">
    <g id="Page-1" stroke="none" stroke-width="1" fill="none" fill-rule="evenodd">
        <g id="Grid-(desktop)" transform="translate(-132.000000, -1008.000000)">
            <g id="mail_share" transform="translate(132.000000, 1008.000000)">
                <circle id="Oval" fill="#AA418C" cx="21" cy="21" r="21"></circle>
                <g id="icon/email" stroke-width="1" transform="translate(5.000000, 5.000000)">
                    <g>
                        <g id="Kader">
                            <rect id="Rectangle" x="0" y="0" width="32" height="32"></rect>
                        </g>
                        <path d="M26,22.2 L21.5,16.5 L19.5,18 L23.8,23.5 L7.7,23.5 L12.3,17.7 L10.3,16.2 L5.55,22.2 L5.55,12.85 L3.05,10.75 L3.05,26 L28.55,26 L28.55,11.2 L26.05,13.3 L26.05,22.2 L26,22.2 Z M3,6 L3,8.1 L13.75,16.25 C15.05,17.25 17.15,17.25 18.45,16.25 L28.5,8.6 L28.5,6 L3,6 Z M16.95,14.3 C16.5,14.65 15.65,14.65 15.2,14.3 L7.4,8.5 L24.8,8.5 L16.95,14.3 Z" id="Shape" fill="#fff" fill-rule="nonzero"></path>
                    </g>
                </g>
            </g>
        </g>
    </g>
</svg>
