<?xml version="1.0" encoding="UTF-8"?>
<svg width="42px" height="42px" viewBox="0 0 42 42" version="1.1" xmlns="http://www.w3.org/2000/svg" xmlns:xlink="http://www.w3.org/1999/xlink">
    <g id="Page-1" stroke="none" stroke-width="1" fill="none" fill-rule="evenodd">
        <g id="Grid-(desktop)" transform="translate(-44.000000, -995.000000)">
            <g id="icon/link-circle" transform="translate(44.000000, 995.000000)">
                <g id="icon/link">
                    <g id="Kader">
                        <rect id="Rectangle" x="0" y="0" width="42" height="42"></rect>
                    </g>
                    <circle id="Oval" fill="#AA418C" cx="21" cy="21" r="21"></circle>
                    <path d="M16.9908836,26.9967147 L26.7961795,17.1857576 L24.8034173,15.1873341 L14.9924602,24.9982913 L16.9908836,26.9967147 Z M19.9403982,26.5721205 C20.3410556,27.6929382 20.0612698,28.9442636 19.2214186,29.7877141 C17.3475428,31.6955575 16.7021596,32.6183422 15.0830403,32.6183422 C13.463921,32.6183422 13.0166817,31.8370889 10.2596499,29.0857183 C9.05312739,27.8786939 9.05312739,25.9222529 10.2596499,24.7152284 C11.9580268,23.0168516 13.1751969,21.2392171 15.4623444,22.0657605 L17.5626705,19.9767569 C15.2218922,18.492798 12.1652781,18.8290256 10.2030373,20.7863166 L8.2895327,22.7507725 C5.98682243,25.0579735 5.98682243,28.7939246 8.2895327,31.1011255 C10.8427593,33.6656746 12.0882357,35.4489704 15.0830403,35.4489704 C17.9759422,35.4489704 19.2270799,33.7505935 21.2141808,31.7804763 C23.1618091,29.838084 23.5049753,26.8059987 22.0407242,24.4774557 L19.9403982,26.5721205 Z M33.6859284,10.9300694 L31.0591055,8.30324645 C28.7616623,5.9933479 25.0274748,5.98068105 22.7144137,8.27494017 L20.7726028,10.2224123 C18.8207701,12.173531 18.4843422,15.2178509 19.9630432,17.548078 L22.0520468,15.4590744 C21.6417683,14.3390489 21.9177563,13.0827515 22.7597038,12.2378196 C24.707176,10.2733636 25.2733016,9.40719143 26.8867596,9.40719143 C28.5002177,9.40719143 28.9531182,10.1827835 31.6988275,12.9341541 C32.90535,14.1411786 32.90535,16.0976195 31.6988275,17.304644 C30.0004506,19.0030208 28.8115868,20.7580103 26.5357617,19.9597732 L24.4410969,22.0600992 C25.3787241,22.6497414 26.4641526,22.9618266 27.5717716,22.960245 C30.4533511,22.960245 31.6931662,21.2618621 33.6859284,19.2917449 C34.7953062,18.1832101 35.418619,16.6792083 35.418619,15.1109071 C35.418619,13.542606 34.7953062,12.0386042 33.6859284,10.9300694 Z" id="Shape" fill="#fff" fill-rule="nonzero"></path>
                </g>
            </g>
        </g>
    </g>
</svg>