<?xml version="1.0" encoding="UTF-8"?>
<svg width="42px" height="42px" viewBox="0 0 42 42" version="1.1" xmlns="http://www.w3.org/2000/svg" xmlns:xlink="http://www.w3.org/1999/xlink">
    <defs>
        <circle id="path-1" cx="21" cy="21" r="21"></circle>
    </defs>
    <g id="Icons/Filled/Twitter" stroke="none" stroke-width="1" fill="none" fill-rule="evenodd">
        <polygon id="Path" points="0 0 42 0 42 42 0 42"></polygon>
        <g id="Mixin/Fill/KVK-Purple-(Prim)">
            <mask id="mask-2" fill="#fff">
                <use xlink:href="#path-1"></use>
            </mask>
            <use id="Oval" fill="#D8D8D8" xlink:href="#path-1"></use>
            <g mask="url(#mask-2)" fill="#AA418C" id="Container">
                <rect x="0" y="0" width="42" height="42"></rect>
            </g>
        </g>
        <path d="M16.8461538,31.1874906 C26.3076923,31.1874906 31.4471154,23.4149359 31.4471154,16.6879521 L31.4471154,16.0338734 C32.4484044,15.3085268 33.3126677,14.4130919 34,13.3889132 C33.0626667,13.7986676 32.0696154,14.0689347 31.0528846,14.190995 C32.1254353,13.5545357 32.9272003,12.5512273 33.3076923,11.3693857 C32.3005624,11.9605259 31.2001643,12.3785811 30.0528846,12.6059286 C28.6108692,11.0832521 26.3790812,10.5887736 24.4220597,11.3583539 C22.4650382,12.1279344 21.1792033,14.0056852 21.1778846,16.0959393 C21.1748573,16.4885253 21.2217013,16.8799231 21.3173077,17.2608676 C17.1899366,17.0561498 13.3446751,15.1191029 10.7403846,11.9327527 C9.38251738,14.2606369 10.0814994,17.2357641 12.3365385,18.7265767 C11.5205814,18.7050314 10.7220828,18.4871334 10.0096154,18.0915952 L10.0096154,18.1632097 C10.0113706,20.5903753 11.7342088,22.6805524 14.1298077,23.1618981 C13.689655,23.2819574 13.2353008,23.3429735 12.7788462,23.3433214 C12.4559478,23.3430382 12.1338685,23.311054 11.8173077,23.2478355 C12.4866313,25.3320477 14.422302,26.7583386 16.625,26.7903635 C14.7976899,28.206105 12.5435863,28.969632 10.2259615,28.9578941 C9.81616752,28.9607807 9.40662706,28.9368574 9,28.8862797 C11.3333245,30.3975704 14.0604007,31.1990583 16.8461538,31.19235" id="path-1" fill="#fff"></path>
    </g>
</svg>