<?xml version="1.0" encoding="UTF-8"?>
<svg width="42px" height="42px" viewBox="0 0 42 42" version="1.1" xmlns="http://www.w3.org/2000/svg" xmlns:xlink="http://www.w3.org/1999/xlink">
    <defs>
        <circle id="path-1" cx="21" cy="21" r="21"></circle>
    </defs>
    <g id="Icons/Filled/Whatsapp" stroke="none" stroke-width="1" fill="none" fill-rule="evenodd">
        <polygon id="Path" points="0 0 42 0 42 42 0 42"></polygon>
        <g id="Mixin/Fill/KVK-Purple-(Prim)">
            <mask id="mask-2" fill="#fff">
                <use xlink:href="#path-1"></use>
            </mask>
            <use id="Oval" fill="#D8D8D8" xlink:href="#path-1"></use>
            <g mask="url(#mask-2)" fill="#AA418C" id="Container">
                <rect x="0" y="0" width="42" height="42"></rect>
            </g>
        </g>
        <g id="whatsapp" transform="translate(9.000000, 8.000000)" fill="#fff">
            <path d="M18.8077176,15.4006139 C18.7308534,15.2716027 18.5242808,15.1951517 18.2120198,15.0422496 C17.8997589,14.8893475 16.3720822,14.1439496 16.0886453,14.0436076 C15.8052085,13.9432656 15.6082438,13.8907055 15.3872592,14.1965097 C15.1662745,14.5023139 14.5849887,15.1951517 14.4264562,15.4006139 C14.2679237,15.6060761 14.0661551,15.6299671 13.7538942,15.477065 C12.8383472,15.1153419 11.9930488,14.5979545 11.2558065,13.9480437 C10.5765235,13.3266761 9.99369543,12.6084983 9.5263612,11.8169705 C9.34380865,11.5111662 9.5263612,11.3391514 9.66087361,11.1910275 C9.79538601,11.0429035 9.97313457,10.8326631 10.1412751,10.6510918 C10.2693852,10.4963829 10.3745413,10.3242103 10.4535361,10.1398254 C10.5458105,9.97154726 10.5458105,9.76816788 10.4535361,9.59988976 C10.3766718,9.44698764 9.7521499,7.93230106 9.49273308,7.31591437 C9.2333163,6.69952774 8.98350755,6.79509154 8.79134697,6.78553514 C8.59918635,6.7759788 8.40222178,6.78553514 8.19564913,6.78553514 C7.87643476,6.79345697 7.57509495,6.93378832 7.36455457,7.17256865 C6.65088173,7.82522865 6.24488486,8.74550976 6.24521874,9.70978817 C6.24521874,11.2244748 7.35975058,12.6866013 7.51347904,12.8920635 C7.6672075,13.0975257 9.70410976,16.20335 12.7978952,17.5364653 C13.376876,17.7839629 13.9685938,18.0008763 14.5705767,18.1862994 C15.2038994,18.3775055 15.8731745,18.4200304 16.5258107,18.3105323 C17.1215085,18.2245249 18.3657483,17.5651345 18.6251651,16.8484058 C18.8258699,16.3936232 18.8892952,15.890608 18.8077176,15.4006139 L18.8077176,15.4006139 Z M6.89856514,21.0579923 L7.27808231,21.277789 C8.87831024,22.2186077 10.7036128,22.7137416 12.5624985,22.7112651 L12.5624985,22.7112651 C16.2405491,22.7112651 19.639208,20.7595776 21.4782333,17.5914146 C23.3172586,14.4232516 23.3172586,10.5199138 21.4782333,7.35175077 C19.639208,4.18358779 16.2405491,2.23191889 12.5624985,2.23191894 L12.5624985,2.23191894 C8.80546846,2.20613308 5.33323207,4.21994308 3.50538649,7.48481668 C1.67754096,10.7496903 1.78495281,14.7460855 3.78556361,17.9091643 L4.03056837,18.2961977 L2.98809716,22.0709688 L6.89856514,21.0579923 Z M0,25 L1.7630734,18.6211148 C-1.36424075,13.2671591 -0.039261649,6.43900755 4.86664538,2.62715707 C9.77255236,-1.18469343 16.7541824,-0.810710651 21.2201041,3.50315764 C25.6860258,7.81702591 26.2660283,14.7472211 22.5786761,19.7361376 C18.8913238,24.7250541 12.0679512,26.2420187 6.59591221,23.2894075 L0,25 Z" id="path-1"></path>
        </g>
    </g>
</svg>